<svg width="35" height="35" viewBox="0 0 35 35" fill="none" xmlns="http://www.w3.org/2000/svg">
<path d="M10.2084 12.3962C10.2084 16.4066 13.4896 19.6878 17.5 19.6878C21.5104 19.6878 24.7917 16.4066 24.7917 12.3962V10.2087C24.7917 6.19824 21.5104 2.91699 17.5 2.91699C13.4896 2.91699 10.2084 6.19824 10.2084 10.2087V12.3962Z" fill="black"/>
<path d="M2.91669 29.7503C2.91669 31.0337 3.96669 32.0837 5.25002 32.0837H29.7209C31.0042 32.0837 32.0542 31.0337 32.0542 29.7503V22.9691C32.0542 22.6191 32.0542 22.2399 31.8792 22.0649C31.3396 20.7962 29.6917 19.6878 27.1396 18.7837C25.3313 22.2545 21.6709 24.617 17.4854 24.617C13.3 24.617 9.65419 22.2545 7.83127 18.7837C5.27919 19.7024 3.64585 20.7816 3.09169 22.0649C2.91669 22.4149 2.91669 22.6045 2.91669 22.9691V29.7503Z" fill="black"/>
</svg>
